<?xml version="1.0" standalone="no"?>
<!DOCTYPE svg PUBLIC "-//W3C//DTD SVG 1.1//EN" "http://www.w3.org/Graphics/SVG/1.1/DTD/svg11.dtd" >
<svg xmlns="http://www.w3.org/2000/svg">
<metadata>Generated by IcoMoon</metadata>
<defs>
<font id="rbc-icons" horiz-adv-x="1024">
<font-face units-per-em="1024" ascent="960" descent="-64" />
<missing-glyph horiz-adv-x="1024" />
<glyph unicode="&#x20;" horiz-adv-x="512" d="" />
<glyph unicode="&#xe600;" glyph-name="calendar" horiz-adv-x="960" d="M883.2 791.467h-70.4v54.4c0 25.6-9.6 48-25.6 64-19.2 19.2-38.4 25.6-64 25.6h-35.2c-25.6 0-48-9.6-64-25.6s-25.6-38.4-25.6-64v-54.4h-220.8v54.4c0 25.6-9.6 48-25.6 64s-38.4 25.6-64 25.6h-35.2c-25.6 0-48-9.6-64-25.6-19.2-19.2-25.6-38.4-25.6-64v-54.4h-147.2v-876.8h67.2c3.2 0 3.2 0 3.2 0h803.2c3.2 0 3.2 0 6.4 0v0h67.2v876.8h-80zM243.2-11.733h-163.2v163.2h163.2v-163.2zM243.2 189.867h-163.2v182.4h163.2v-182.4zM243.2 407.467h-163.2v163.2h163.2v-163.2zM230.4 669.867c-3.2 3.2-6.4 6.4-6.4 12.8v163.2c0 6.4 3.2 9.6 6.4 12.8s6.4 6.4 12.8 6.4h35.2c6.4 0 9.6-3.2 12.8-6.4s6.4-6.4 6.4-12.8v-163.2c0-6.4-3.2-9.6-6.4-12.8s-6.4-6.4-12.8-6.4h-35.2c-6.4 0-9.6 3.2-12.8 6.4zM460.8-11.733h-182.4v163.2h182.4v-163.2zM460.8 189.867h-182.4v182.4h182.4v-182.4zM460.8 407.467h-182.4v163.2h182.4v-163.2zM681.6-11.733h-182.4v163.2h182.4v-163.2zM681.6 189.867h-182.4v182.4h182.4v-182.4zM681.6 407.467h-182.4v163.2h182.4v-163.2zM668.8 669.867c-3.2 3.2-6.4 6.4-6.4 12.8v163.2c0 6.4 3.2 9.6 6.4 12.8s6.4 6.4 12.8 6.4h35.2c6.4 0 9.6-3.2 12.8-6.4s6.4-6.4 6.4-12.8v-163.2c0-6.4-3.2-9.6-6.4-12.8s-6.4-6.4-12.8-6.4h-35.2c-6.4 0-9.6 3.2-12.8 6.4zM883.2-11.733h-163.2v163.2h163.2v-163.2zM883.2 189.867h-163.2v182.4h163.2v-182.4zM883.2 407.467h-163.2v163.2h163.2v-163.2z" />
<glyph unicode="&#xe601;" glyph-name="pending" d="M0 426.667c0 281.6 230.4 512 512 512s512-230.4 512-512c0-281.6-230.4-512-512-512s-512 230.4-512 512zM108.8 426.667c0-224 179.2-403.2 403.2-403.2s403.2 179.2 403.2 403.2-179.2 403.2-403.2 403.2c-220.8 0-403.2-179.2-403.2-403.2zM720 461.867h-163.2v204.8c0 32-25.6 60.8-57.6 60.8s-57.6-25.6-57.6-60.8v-256c0-3.2 0-3.2 0-6.4 0-32 25.6-57.6 60.8-57.6h214.4c32 0 60.8 25.6 60.8 57.6 3.2 32-22.4 57.6-57.6 57.6z" />
<glyph unicode="&#xe602;" glyph-name="calendar2" d="M32-12.181v731.424q0 29.728 21.728 51.424t51.424 21.728h73.152v54.848q0 37.728 26.848 64.576t64.576 26.848h36.576q37.728 0 64.576-26.848t26.848-64.576v-54.848h219.424v54.848q0 37.728 26.848 64.576t64.576 26.848h36.576q37.728 0 64.576-26.848t26.848-64.576v-54.848h73.152q29.728 0 51.424-21.728t21.728-51.424v-731.424q0-29.728-21.728-51.424t-51.424-21.728h-804.576q-29.728 0-51.424 21.728t-21.728 51.424zM105.152-12.181h164.576v164.576h-164.576v-164.576zM105.152 188.939h164.576v182.848h-164.576v-182.848zM105.152 408.395h164.576v164.576h-164.576v-164.576zM251.424 682.667q0-7.424 5.44-12.864t12.864-5.44h36.576q7.424 0 12.864 5.44t5.44 12.864v164.576q0 7.424-5.44 12.864t-12.864 5.44h-36.576q-7.424 0-12.864-5.44t-5.44-12.864v-164.576zM306.272-12.181h182.848v164.576h-182.848v-164.576zM306.272 188.939h182.848v182.848h-182.848v-182.848zM306.272 408.395h182.848v164.576h-182.848v-164.576zM525.728-12.181h182.848v164.576h-182.848v-164.576zM525.728 188.939h182.848v182.848h-182.848v-182.848zM525.728 408.395h182.848v164.576h-182.848v-164.576zM690.272 682.667q0-7.424 5.44-12.864t12.864-5.44h36.576q7.424 0 12.864 5.44t5.44 12.864v164.576q0 7.424-5.44 12.864t-12.864 5.44h-36.576q-7.424 0-12.864-5.44t-5.44-12.864v-164.576zM745.152-12.181h164.576v164.576h-164.576v-164.576zM745.152 188.939h164.576v182.848h-164.576v-182.848zM745.152 408.395h164.576v164.576h-164.576v-164.576z" />
<glyph unicode="&#xe603;" glyph-name="check2" d="M768 746.667l-384-384-128 128-128-128 256-256 512 512-128 128z" />
<glyph unicode="&#xe604;" glyph-name="chevronDown" d="M704 618.667l-192-192-192 192-128-128 320-320 320 320-128 128z" />
<glyph unicode="&#xe605;" glyph-name="chevronLeft" d="M736 618.667l-128 128-320-320 320-320 128 128-192 192 192 192z" />
<glyph unicode="&#xe606;" glyph-name="chevronRight" d="M416 746.667l-128-128 192-192-192-192 128-128 320 320-320 320z" />
<glyph unicode="&#xe607;" glyph-name="chevronUp" d="M512 682.667l-320-320 128-128 192 192 192-192 128 128-320 320z" />
<glyph unicode="&#xe608;" glyph-name="cross" d="M752.578 570.617l-93.463 93.432c-3.662 3.662-8.44 5.492-13.25 5.492s-9.588-1.831-13.25-5.492l-126.79-126.79-126.79 126.79c-3.662 3.662-8.44 5.492-13.25 5.492s-9.588-1.831-13.25-5.492l-93.463-93.432c-7.323-7.323-7.323-19.177 0-26.5l126.759-126.821-126.759-126.79c-7.323-7.323-7.323-19.177 0-26.5l93.463-93.463c3.537-3.506 8.285-5.492 13.25-5.492s9.744 1.955 13.25 5.492l126.79 126.852 126.79-126.852c3.506-3.506 8.285-5.492 13.25-5.492s9.744 1.955 13.25 5.492l93.463 93.463c7.323 7.323 7.323 19.177 0 26.5l-126.759 126.79 126.759 126.821c7.323 7.292 7.323 19.177 0 26.5z" />
<glyph unicode="&#xe609;" glyph-name="crossBig" d="M832 618.667l-128 128-192-192-192 192-128-128 192-192-192-192 128-128 192 192 192-192 128 128-192 192 192 192z" />
<glyph unicode="&#xe60a;" glyph-name="close" d="M784 61.867l-272 272-272-272-92.8 92.8 272 272-272 272 92.8 92.8 272-272 272 272 92.8-92.8-272-272 272-272-92.8-92.8z" />
<glyph unicode="&#xe60b;" glyph-name="crossCirc" d="M752.578 570.617l-93.463 93.432c-3.662 3.662-8.44 5.492-13.25 5.492s-9.588-1.831-13.25-5.492l-126.79-126.79-126.79 126.79c-3.662 3.662-8.44 5.492-13.25 5.492s-9.588-1.831-13.25-5.492l-93.463-93.432c-7.323-7.323-7.323-19.177 0-26.5l126.759-126.821-126.759-126.79c-7.323-7.323-7.323-19.177 0-26.5l93.463-93.463c3.537-3.506 8.285-5.492 13.25-5.492s9.744 1.955 13.25 5.492l126.79 126.852 126.79-126.852c3.506-3.506 8.285-5.492 13.25-5.492s9.744 1.955 13.25 5.492l93.463 93.463c7.323 7.323 7.323 19.177 0 26.5l-126.759 126.79 126.759 126.821c7.323 7.292 7.323 19.177 0 26.5zM505.515 923.4c-279.335 0-505.825-226.428-505.825-505.763s226.49-505.763 505.825-505.763 505.825 226.428 505.825 505.763-226.49 505.763-505.825 505.763zM505.856 33.296c-212.092 0-384.062 171.939-384.062 384.031s171.97 384.031 384.062 384.031 384.062-171.939 384.062-384.031-171.97-384.031-384.062-384.031z" />
<glyph unicode="&#xe60c;" glyph-name="minus" d="M256 490.667v-128h512v128h-512z" />
<glyph unicode="&#xe60d;" glyph-name="plus2" d="M788.728 351.263l-0.031 132.127c0 5.182-2.079 9.868-5.492 13.25s-8.099 5.492-13.25 5.492h-179.293v179.324c0.031 5.182-2.079 9.868-5.492 13.25s-8.068 5.492-13.25 5.492h-132.127c-10.364 0-18.742-8.378-18.742-18.742l-0.031-179.324-179.293-0.031c-10.364 0-18.742-8.378-18.742-18.742v-132.158c0-4.996 1.986-9.775 5.492-13.25 3.537-3.506 8.285-5.492 13.25-5.492l179.324 0.031-0.031-179.324c0-4.996 1.955-9.744 5.461-13.25s8.285-5.492 13.25-5.492l132.158 0.031c10.364 0 18.742 8.347 18.742 18.742l0.031 179.262 179.324 0.031c10.333-0.031 18.742 8.347 18.742 18.742z" />
<glyph unicode="&#xe60e;" glyph-name="alert" d="M631.456 938.667l-480.704-603.008h301.504l-59.744-420.992 480.704 603.008h-301.504z" />
<glyph unicode="&#xe60f;" glyph-name="attention" d="M651.392 335.659c0-25.6-22.752-45.504-48.352-45.504h-184.896c-25.6 0-45.504 19.904-48.352 45.504l-17.056 551.808c0 25.6 19.904 45.504 45.504 45.504h227.552c25.6 0 45.504-19.904 45.504-45.504l-19.904-551.808zM651.392-34.133c0-25.6-19.904-45.504-45.504-45.504h-184.896c-25.6 0-45.504 19.904-45.504 45.504v162.144c0 25.6 19.904 45.504 45.504 45.504h184.896c25.6 0 45.504-19.904 45.504-45.504v-162.144z" />
<glyph unicode="&#xe610;" glyph-name="bills" d="M667.392 796.459l-122.304 122.304h-62.592l-122.304-122.304h-247.456v-864.704h802.144v864.704h-247.456zM513.792 822.059l62.592-62.592v-54.048h-122.304v54.048l59.744 62.592zM823.808 25.611h-620.096v679.808h153.6v-93.856h310.048v93.856h153.6v-679.808z" />
<glyph unicode="&#xe61a;" glyph-name="chevron" d="M739.552 475.019l-472.192 457.952-48.352-48.352 472.192-457.952-472.192-457.952 48.352-48.352 472.192 457.952 48.352 48.352-48.352 48.352z" />
<glyph unicode="&#xe61b;" glyph-name="chevron2" d="M284.448 378.315l472.192-457.952 48.352 48.352-472.192 457.952 472.192 457.952-48.352 48.352-472.192-457.952-48.352-48.352 48.352-48.352z" />
<glyph unicode="&#xe61c;" glyph-name="collapse" d="M560.352 182.059l457.952 472.192-48.352 48.352-457.952-472.192-457.952 472.192-48.352-48.352 457.952-472.192 48.352-48.352 48.352 48.352z" />
<glyph unicode="&#xe61d;" glyph-name="arrow" d="M972.8 460.811l-372.608 338.496-36.992-34.144 344.192-312.896h-893.152v-51.2h893.152l-344.192-312.896 36.992-34.144 372.608 338.496 36.992 34.144z" />
<glyph unicode="&#xe61e;" glyph-name="comment" d="M19.904 520.523c0 196.256 219.008 352.704 492.096 352.704s492.096-156.448 492.096-352.704c0-110.944-73.952-210.496-184.896-275.904 25.6-91.008 65.408-125.152 99.552-164.992 8.544-8.544 17.056-17.056 14.208-31.296v0c-2.848-14.208-14.208-22.752-25.6-19.904-22.752 2.848-42.656 5.696-62.592 11.392-93.856 25.6-182.048 68.256-253.152 133.696-25.6-2.848-54.048-2.848-79.648-2.848-273.056 0-492.096 156.448-492.096 349.856z" />
<glyph unicode="&#xe61f;" glyph-name="confirm" d="M91.008 469.323c36.992-19.904 256-187.744 256-187.744 284.448 386.848 625.792 583.104 625.792 583.104l39.808-56.896c-216.192-139.392-625.792-813.504-625.792-813.504-39.808 51.2-384 369.792-384 369.792l88.192 105.248z" />
<glyph unicode="&#xe620;" glyph-name="disclosure" d="M972.8 207.659l-42.656-73.952c-22.752-39.808-76.8-54.048-116.608-31.296l-176.352 102.4v-201.952c0-45.504-39.808-85.344-85.344-85.344h-85.344c-45.504 0-85.344 39.808-85.344 85.344v201.952l-176.352-102.4c-39.808-22.752-93.856-8.544-116.608 31.296l-42.656 73.952c-22.752 39.808-8.544 93.856 31.296 116.608l182.048 102.4-176.352 102.4c-39.808 22.752-54.048 76.8-31.296 116.608l42.656 73.952c22.752 39.808 76.8 54.048 116.608 31.296l176.352-102.4v201.952c0 45.504 39.808 85.344 85.344 85.344h85.344c45.504 0 85.344-39.808 85.344-85.344v-201.952l176.352 102.4c39.808 22.752 93.856 8.544 116.608-31.296l42.656-73.952c22.752-39.808 8.544-93.856-31.296-116.608l-182.048-102.4 176.352-102.4c42.656-22.752 54.048-73.952 31.296-116.608z" />
<glyph unicode="&#xe621;" glyph-name="docs" d="M898.848-71.125h-802.144v995.552h494.944c0 0 8.544-11.392 14.208-17.056 93.856-88.192 295.808-290.144 295.808-290.144v-688.352zM543.296 594.475v250.304h-358.4v-833.408h625.792v583.104h-267.392zM321.408 324.267h352.704v-79.648h-352.704v79.648zM321.408 477.867h261.696v-79.648h-261.696v79.648zM321.408 167.819h261.696v-76.8h-261.696v76.8z" />
<glyph unicode="&#xe622;" glyph-name="expand" d="M463.648 654.219l-457.952-472.192 48.352-48.352 457.952 472.192 457.952-472.192 48.352 48.352-457.952 472.192-48.352 48.352-48.352-48.352z" />
<glyph unicode="&#xe623;" glyph-name="info" d="M457.6 669.867h108.8v-108.8h-108.8v108.8zM563.2 241.067v268.8h-160v-54.4h54.4v-214.4h-54.4v-54.4h217.6v54.4h-57.6zM512 938.667c-281.6 0-512-230.4-512-512s230.4-512 512-512 512 230.4 512 512-230.4 512-512 512zM512-40.533c-256 0-467.2 208-467.2 467.2s208 467.2 467.2 467.2 467.2-208 467.2-467.2-211.2-467.2-467.2-467.2z" />
<glyph unicode="&#xe624;" glyph-name="links" d="M329.6 557.867l182.4-262.4 182.4 262.4h-364.8zM512 938.667c-281.6 0-512-230.4-512-512s230.4-512 512-512 512 230.4 512 512-230.4 512-512 512zM512-40.533c-256 0-467.2 208-467.2 467.2s208 467.2 467.2 467.2 467.2-208 467.2-467.2-211.2-467.2-467.2-467.2z" />
<glyph unicode="&#xe625;" glyph-name="caret" d="M329.6 557.867l182.4-262.4 182.4 262.4h-364.8z" />
<glyph unicode="&#xe626;" glyph-name="msg" d="M924.448 810.667v-531.904h-477.856l-110.944-110.944v110.944h-236.096v531.904h824.896zM1015.456 898.859h-1006.944v-708.256h236.096v-236.096l236.096 236.096h531.904v708.256h2.848z" />
<glyph unicode="&#xe627;" glyph-name="newWindow" d="M196.256 813.515v-634.304h813.504v634.304h-813.504zM918.752 270.219h-634.304v452.256h634.304v-452.256zM105.248 631.467h-91.008v-634.304h813.504v91.008h-722.496v543.296z" />
<glyph unicode="&#xe628;" glyph-name="offers" d="M324.256 674.123v-62.592h-59.744v62.592h59.744zM386.848 736.715h-184.896v-187.744h187.744v187.744h-2.848zM452.256 850.475l452.256-452.256-364.096-364.096-452.256 452.256v290.144l73.952 73.952h290.144zM483.552 924.459h-352.704l-116.608-116.608v-352.704l526.208-526.208 469.344 469.344-526.208 526.208z" />
<glyph unicode="&#xe629;" glyph-name="pin2" d="M452 234.667l64-320 64 320c-20-2.016-43.008-3.008-64-3.008s-44 0.992-64 3.008zM706.016 533.675c-32.992 16.992-62.016 59.008-62.016 84.992v64c0 22.016 12 39.008 23.008 52 15.008 12.992 24 28.992 24 44.992 0 52.992-60.992 95.008-175.008 95.008s-175.008-42.016-175.008-95.008c0-16 8.992-32 24-44.992 11.008-12.992 23.008-30.016 23.008-52v-64c0-26.016-28.992-68-62.016-84.992-38.016-19.008-70.016-54.016-70.016-88 0-74.016 100.992-148 260-148s260 72.992 260 148c0 32.992-31.008 68-70.016 88z" />
<glyph unicode="&#xe62a;" glyph-name="pin" d="M284.448 466.475l-153.6-156.448c-8.544-8.544-11.392-17.056-11.392-28.448 0-22.752 19.904-42.656 39.808-42.656h292.992v-258.848c0-28.448 22.752-51.2 51.2-51.2s51.2 22.752 51.2 51.2v258.848h312.896c22.752 0 39.808 19.904 39.808 42.656 0 11.392-5.696 22.752-11.392 28.448l-156.448 156.448v355.552h31.296c28.448 0 51.2 22.752 51.2 51.2s-22.752 51.2-51.2 51.2h-517.696c-31.296 2.848-54.048-22.752-54.048-51.2s22.752-51.2 51.2-51.2h34.144v-355.552zM469.344 779.371v-270.208c0-22.752-19.904-42.656-42.656-42.656s-42.656 19.904-42.656 42.656v270.208c0 22.752 19.904 42.656 42.656 42.656s42.656-19.904 42.656-42.656z" />
<glyph unicode="&#xe62b;" glyph-name="plus" d="M438.048-85.333v438.048h-438.048v147.904h438.048v438.048h147.904v-438.048h438.048v-147.904h-438.048v-438.048z" />
<glyph unicode="&#xe62c;" glyph-name="success" d="M921.6 378.315c19.904 28.448 34.144 51.2 34.144 85.344 0 79.648-68.256 147.904-147.904 147.904h-102.4c17.056 36.992 28.448 71.104 28.448 110.944s-2.848 73.952-19.904 108.096c-28.448 56.896-85.344 76.8-147.904 76.8-19.904 0-36.992-8.544-51.2-22.752-56.896-56.896-39.808-147.904-73.952-184.896-22.752-22.752-42.656-48.352-62.592-73.952-17.056-22.752-56.896-73.952-79.648-91.008h-159.296c-39.808 0-73.952-34.144-73.952-73.952l42.656-329.952c2.848-39.808 31.296-113.792 71.104-113.792h125.152c17.056 0 62.592-17.056 79.648-22.752 76.8-25.6 153.6-51.2 236.096-51.2h73.952c108.096 0 182.048 65.408 182.048 173.504 22.752 28.448 34.144 65.408 34.144 102.4 0 8.544 0 17.056-2.848 25.6 14.208 25.6 22.752 54.048 22.752 82.496 5.696 17.056-2.848 39.808-8.544 51.2zM830.592 401.067c11.392-14.208 25.6-54.048 25.6-71.104 0-28.448-5.696-51.2-25.6-68.256 5.696-11.392 11.392-25.6 11.392-39.808 0-25.6-14.208-59.744-36.992-73.952 2.848-11.392 2.848-22.752 2.848-31.296 0-71.104-45.504-96.704-110.944-96.704h-71.104c-68.256 0-133.696 19.904-199.104 42.656-31.296 11.392-85.344 31.296-116.608 31.296h-19.904v369.792h19.904c45.504 0 113.792 99.552 142.208 133.696 14.208 17.056 28.448 36.992 45.504 54.048 56.896 59.744 36.992 147.904 73.952 184.896 54.048 22.752 93.856-42.656 93.856-110.944s-56.896-116.608-56.896-184.896h204.8c39.808 0 73.952-34.144 73.952-73.952-2.848-22.752-31.296-62.592-56.896-65.408z" />
<glyph unicode="&#xe62d;" glyph-name="thumbsUp" d="M0 134.091v365.728q0 30.272 21.44 51.712t51.712 21.44h156.576q20.576 13.728 78.272 88.576 33.152 42.848 61.152 73.152 13.728 14.272 20.288 48.864t17.44 72.288 35.424 61.728q22.272 21.152 51.424 21.152 48 0 86.272-18.56t58.272-58.016 20-106.272q0-53.152-27.424-109.728h100.576q59.424 0 102.848-43.424t43.424-102.272q0-50.848-28-93.152 5.152-18.848 5.152-39.424 0-44-21.728-82.272 1.728-12 1.728-24.576 0-57.728-34.272-101.728 0.576-79.424-48.576-125.44t-129.728-46.016h-73.728q-54.848 0-108.288 12.864t-123.712 37.44q-66.272 22.848-78.848 22.848h-164.576q-30.272 0-51.712 21.44t-21.44 51.712zM73.152 170.667q0-14.848 10.848-25.728t25.728-10.848 25.728 10.848 10.848 25.728-10.848 25.728-25.728 10.848-25.728-10.848-10.848-25.728zM219.424 134.091h18.272q7.424 0 18.016-1.728t18.848-3.712 21.728-6.272 20-6.56 20.288-7.136 16.576-6.016q120.576-41.728 195.424-41.728h69.152q109.728 0 109.728 95.424 0 14.848-2.848 32 17.152 9.152 27.136 30.016t10.016 42.016-10.272 39.424q30.272 28.576 30.272 68 0 14.272-5.728 31.712t-14.272 27.136q18.272 0.576 30.56 26.848t12.288 46.272q0 29.152-22.272 51.136t-50.848 22.016h-201.152q0 33.152 27.424 91.136t27.424 91.712q0 56-18.272 82.848t-73.152 26.848q-14.848-14.848-21.728-48.576t-17.44-71.712-34.016-62.56q-12.576-13.152-44-52-2.272-2.848-13.152-17.152t-18.016-23.424-19.712-24.288-22.848-25.152-22.016-20.288-22.848-15.424-20.288-5.152h-18.272v-365.728z" />
<glyph unicode="&#xe900;" glyph-name="tableLayout" d="M928 938.667h-832c-51.2 0-96-44.8-96-96v-832c0-51.2 44.8-96 96-96h832c51.2 0 96 44.8 96 96v832c0 51.2-44.8 96-96 96zM960 842.667v-224h-256v256h224c19.2 0 32-12.8 32-32zM384 298.667v256h256v-256h-256zM640 234.667v-256h-256v256h256zM320 298.667h-256v256h256v-256zM384 618.667v256h256v-256h-256zM704 554.667h256v-256h-256v256zM96 874.667h224v-256h-256v224c0 19.2 12.8 32 32 32zM64 10.667v224h256v-256h-224c-19.2 0-32 12.8-32 32zM928-21.333h-224v256h256v-224c0-19.2-12.8-32-32-32z" />
<glyph unicode="&#xe901;" glyph-name="graph" d="M940.8-85.333h-864c-44.8 0-83.2 38.4-83.2 83.2v864c0 44.8 38.4 83.2 83.2 83.2h864c44.8 0 83.2-38.4 83.2-83.2v-864c0-44.8-38.4-83.2-83.2-83.2zM83.2 887.467c-12.8 0-25.6-12.8-25.6-25.6v-864c0-12.8 12.8-25.6 25.6-25.6h864c12.8 0 25.6 12.8 25.6 25.6v864c0 12.8-12.8 25.6-25.6 25.6h-864zM352 74.667h-108.8c-12.8 0-25.6 12.8-25.6 25.6v486.4c0 12.8 12.8 25.6 25.6 25.6h108.8c12.8 0 25.6-12.8 25.6-25.6v-486.4c0-12.8-12.8-25.6-25.6-25.6zM268.8 132.267h51.2v428.8h-51.2v-428.8zM563.2 74.667h-108.8c-12.8 0-25.6 12.8-25.6 25.6v646.4c0 12.8 12.8 25.6 25.6 25.6h108.8c12.8 0 25.6-12.8 25.6-25.6v-646.4c6.4-12.8-6.4-25.6-25.6-25.6zM486.4 132.267h51.2v595.2h-51.2v-595.2zM780.8 74.667h-108.8c-12.8 0-25.6 12.8-25.6 25.6v268.8c0 12.8 12.8 25.6 25.6 25.6h108.8c12.8 0 25.6-12.8 25.6-25.6v-268.8c0-12.8-12.8-25.6-25.6-25.6zM697.6 132.267h51.2v217.6h-51.2v-217.6z" />
<glyph unicode="&#xe902;" glyph-name="reset" d="M83.2 23.467h864c44.8 0 76.8 32 76.8 76.8v659.2c0 44.8-32 76.8-76.8 76.8h-563.2c-12.8 0-25.6-12.8-25.6-25.6s12.8-25.6 25.6-25.6h556.8c12.8 0 25.6-12.8 25.6-25.6v-659.2c0-12.8-12.8-25.6-25.6-25.6h-864c-12.8 0-25.6 12.8-25.6 25.6v352c0 12.8-12.8 25.6-25.6 25.6s-25.6-12.8-25.6-25.6v-352c6.4-44.8 38.4-76.8 83.2-76.8zM38.4 625.067l204.8 204.8c12.8 12.8 25.6 12.8 38.4 0s12.8-25.6 0-38.4l-160-160h320c89.6 0 166.4-32 230.4-89.6s96-134.4 96-217.6v-25.6c0-12.8-12.8-25.6-25.6-25.6s-25.6 12.8-25.6 25.6v25.6c0 140.8-128 256-281.6 256h-320l160-160c12.8-12.8 12.8-25.6 0-38.4-6.4-6.4-12.8-6.4-19.2-6.4s-12.8 0-19.2 6.4l-204.8 204.8c-6.4 6.4-6.4 25.6 6.4 38.4v0z" />
<glyph unicode="&#xe903;" glyph-name="print" d="M947.2 733.867h-76.8v128c0 44.8-32 76.8-76.8 76.8h-563.2c-44.8 0-76.8-32-76.8-76.8v-128h-76.8c-44.8 0-76.8-32-76.8-76.8v-460.8c0-44.8 32-76.8 76.8-76.8h76.8v-128c0-44.8 32-76.8 76.8-76.8h563.2c44.8 0 76.8 32 76.8 76.8v128h76.8c44.8 0 76.8 32 76.8 76.8v460.8c0 44.8-32 76.8-76.8 76.8zM204.8 861.867c0 12.8 12.8 25.6 25.6 25.6h563.2c12.8 0 25.6-12.8 25.6-25.6v-128h-614.4v128zM793.6-34.133h-563.2c-12.8 0-25.6 12.8-25.6 25.6v332.8h614.4v-332.8c0-12.8-12.8-25.6-25.6-25.6zM972.8 196.267c0-12.8-12.8-25.6-25.6-25.6h-76.8v153.6h25.6c12.8 0 25.6 12.8 25.6 25.6s-12.8 25.6-25.6 25.6h-768c-12.8 0-25.6-12.8-25.6-25.6s12.8-25.6 25.6-25.6h25.6v-153.6h-76.8c-12.8 0-25.6 12.8-25.6 25.6v460.8c0 12.8 12.8 25.6 25.6 25.6h870.4c12.8 0 25.6-12.8 25.6-25.6v-460.8zM742.4 17.067h-460.8c-12.8 0-25.6 12.8-25.6 25.6s12.8 25.6 25.6 25.6h460.8c12.8 0 25.6-12.8 25.6-25.6s-12.8-25.6-25.6-25.6z" />
<glyph unicode="&#xe904;" glyph-name="mrcChevron" horiz-adv-x="696" d="M-0.287-85.128l506.655 501.555-506.655 522.035h190.218l506.675-522.035-506.675-501.555h-190.218z" />
</font>
</defs>
</svg>
